<svg width="17" height="16" viewBox="0 0 17 16" fill="none" xmlns="http://www.w3.org/2000/svg">
<path d="M6.83335 2H10.1667C10.4319 2 10.6863 2.10536 10.8738 2.29289C11.0613 2.48043 11.1667 2.73478 11.1667 3C11.1667 3.61884 10.9209 4.21233 10.4833 4.64992C10.0457 5.0875 9.45219 5.33333 8.83335 5.33333H8.16669C7.54785 5.33333 6.95436 5.0875 6.51677 4.64992C6.07919 4.21233 5.83335 3.61884 5.83335 3C5.83335 2.73478 5.93871 2.48043 6.12625 2.29289C6.31378 2.10536 6.56814 2 6.83335 2Z" stroke="white" stroke-width="1.4" stroke-linecap="round" stroke-linejoin="round"/>
<path d="M3.16669 11.3333V10.6667C3.16669 9.25218 3.72859 7.89562 4.72878 6.89543C5.72898 5.89524 7.08553 5.33333 8.50002 5.33333C9.91451 5.33333 11.2711 5.89524 12.2713 6.89543C13.2715 7.89562 13.8334 9.25218 13.8334 10.6667V11.3333C13.8334 12.0406 13.5524 12.7189 13.0523 13.219C12.5522 13.719 11.8739 14 11.1667 14H5.83335C5.12611 14 4.44783 13.719 3.94774 13.219C3.44764 12.7189 3.16669 12.0406 3.16669 11.3333Z" stroke="white" stroke-width="1.4" stroke-linecap="round" stroke-linejoin="round"/>
</svg>
