<svg width="20" height="19" viewBox="0 0 20 19" fill="none" xmlns="http://www.w3.org/2000/svg">
<path d="M14.5672 5.5999C13.7332 5.23331 12.8415 4.96687 11.9092 4.81518C11.7947 5.00966 11.6609 5.27123 11.5687 5.47932C10.5776 5.3393 9.5957 5.3393 8.62289 5.47932C8.53069 5.27123 8.39386 5.00966 8.27837 4.81518C7.34507 4.96687 6.4523 5.23428 5.61832 5.60185C3.93616 7.99005 3.48015 10.319 3.70815 12.6148C4.82385 13.3976 5.90509 13.873 6.9681 14.1842C7.23056 13.8449 7.46464 13.4841 7.6663 13.1039C7.28224 12.9668 6.91439 12.7976 6.56681 12.6011C6.65902 12.537 6.74921 12.4699 6.83636 12.4009C8.95631 13.3324 11.2596 13.3324 13.3542 12.4009C13.4424 12.4699 13.5326 12.537 13.6238 12.6011C13.2752 12.7985 12.9063 12.9677 12.5223 13.1049C12.7239 13.4841 12.957 13.8458 13.2205 14.1852C14.2845 13.874 15.3667 13.3985 16.4824 12.6148C16.75 9.95333 16.0254 7.64582 14.5672 5.5999ZM7.9551 11.2029C7.31872 11.2029 6.79684 10.6447 6.79684 9.965C6.79684 9.28529 7.30757 8.72617 7.9551 8.72617C8.60264 8.72617 9.12449 9.28431 9.11335 9.965C9.11439 10.6447 8.60264 11.2029 7.9551 11.2029ZM12.2355 11.2029C11.5991 11.2029 11.0772 10.6447 11.0772 9.965C11.0772 9.28529 11.588 8.72617 12.2355 8.72617C12.883 8.72617 13.4049 9.28431 13.3938 9.965C13.3938 10.6447 12.883 11.2029 12.2355 11.2029Z" fill="#5865F2"/>
</svg>
