<svg width="19" height="19" viewBox="0 0 19 19" fill="none" xmlns="http://www.w3.org/2000/svg">
<path d="M9.50001 1.99793C7.6459 1.99801 5.85231 2.65782 4.44018 3.85932C3.02804 5.06081 2.08951 6.72558 1.7925 8.55574C1.4955 10.3859 1.85941 12.262 2.81912 13.8484C3.77882 15.4348 5.2717 16.628 7.03063 17.2144C7.42105 17.2827 7.56746 17.0485 7.56746 16.8435C7.56746 16.6581 7.55769 16.0432 7.55769 15.3892C5.59584 15.7503 5.0883 14.911 4.93213 14.4718C4.75884 14.0446 4.48415 13.666 4.13178 13.3688C3.85848 13.2224 3.46807 12.8613 4.12201 12.8515C4.37171 12.8786 4.6112 12.9655 4.82018 13.1048C5.02917 13.2441 5.20149 13.4318 5.32255 13.6519C5.42934 13.8437 5.57294 14.0126 5.74513 14.1489C5.91731 14.2851 6.11468 14.3861 6.32594 14.4459C6.5372 14.5057 6.7582 14.5233 6.97626 14.4976C7.19432 14.4719 7.40516 14.4034 7.59671 14.296C7.63051 13.8991 7.80742 13.5279 8.09451 13.2517C6.35715 13.0565 4.54171 12.383 4.54171 9.39635C4.53074 8.62031 4.8171 7.86949 5.34207 7.29786C5.10335 6.62339 5.13128 5.88321 5.42015 5.22865C5.42015 5.22865 6.07408 5.02367 7.56744 6.029C8.84511 5.67761 10.1939 5.67761 11.4716 6.029C12.9649 5.01392 13.6189 5.22865 13.6189 5.22865C13.9078 5.8832 13.9357 6.6234 13.697 7.29786C14.2235 7.86851 14.5101 8.61999 14.4973 9.39635C14.4973 12.3928 12.6721 13.0565 10.9348 13.2517C11.1211 13.4406 11.2647 13.6673 11.3556 13.9166C11.4465 14.1659 11.4828 14.4318 11.4618 14.6963C11.4618 15.7406 11.4521 16.58 11.4521 16.8435C11.4521 17.0485 11.5985 17.2925 11.9889 17.2144C13.7447 16.6232 15.2333 15.4273 16.1889 13.8401C17.1446 12.2529 17.505 10.3777 17.206 8.5493C16.9069 6.72091 15.9678 5.0583 14.5563 3.85827C13.1447 2.65824 11.3527 1.99889 9.50001 1.99793Z" fill="white"/>
</svg>
