<svg width="19" height="19" viewBox="0 0 19 19" fill="none" xmlns="http://www.w3.org/2000/svg">
<path d="M9.59221 1.69167C8.04787 1.69167 6.53821 2.14962 5.25413 3.00761C3.97006 3.8656 2.96925 5.08509 2.37825 6.51188C1.78726 7.93866 1.63263 9.50866 1.93391 11.0233C2.2352 12.538 2.97887 13.9293 4.07089 15.0213C5.1629 16.1133 6.55421 16.857 8.06888 17.1583C9.58355 17.4596 11.1535 17.305 12.5803 16.714C14.0071 16.123 15.2266 15.1221 16.0846 13.8381C16.9426 12.554 17.4005 11.0443 17.4005 9.5C17.4006 8.47457 17.1987 7.45917 16.8063 6.51178C16.414 5.56439 15.8388 4.70357 15.1137 3.97848C14.3886 3.2534 13.5278 2.67824 12.5804 2.28587C11.633 1.89349 10.6176 1.69158 9.59221 1.69167V1.69167ZM12.0749 13.5232C12.0457 13.5961 12.0012 13.6619 11.9445 13.7162C11.8877 13.7704 11.82 13.812 11.746 13.838C11.6719 13.864 11.5931 13.8738 11.5149 13.8669C11.4367 13.8599 11.3608 13.8363 11.2925 13.7977L9.17278 12.1506L7.81232 13.4057C7.78075 13.4291 7.74382 13.4441 7.70493 13.4494C7.66605 13.4547 7.62645 13.4501 7.58978 13.4361L7.85058 11.1026L7.85892 11.1093L7.86426 11.0632C7.86426 11.0632 11.6786 7.59043 11.834 7.44247C11.9913 7.29489 11.9394 7.26288 11.9394 7.26288C11.9484 7.08287 11.6571 7.26288 11.6571 7.26288L6.60318 10.5143L4.49845 9.7975C4.49845 9.7975 4.17519 9.68154 4.14474 9.4266C4.11272 9.17361 4.50899 9.03618 4.50899 9.03618L12.8772 5.71178C12.8772 5.71178 13.5651 5.40529 13.5651 5.91285L12.0749 13.5232Z" fill="#4DC3FF"/>
</svg>
